<svg width="234" height="38" viewBox="0 0 234 38" fill="none" xmlns="http://www.w3.org/2000/svg">
<path d="M120.68 24.8V18.02H119.32C118.52 18.02 115.28 18.02 114.08 18.04V13.8H132.04V18.04C130.84 18.02 129.4 18.02 128.6 18.02H125.44V24.8C125.44 26.12 125.44 27.1 125.46 28H120.66C120.68 27.12 120.68 26.14 120.68 24.8ZM143.665 28.28C135.785 28.28 134.565 27.32 134.565 23.42L139.345 23.34V23.72C139.345 24.44 139.625 24.62 143.565 24.62C147.305 24.62 147.505 24.44 147.505 23.8V23.7C147.505 23.12 147.125 22.84 142.145 22.6C135.745 22.28 134.645 21.22 134.645 18.06C134.645 15.1 135.945 13.52 143.165 13.52C151.145 13.52 151.805 15.06 151.805 18.28L147.025 18.36V18.02C147.025 17.4 146.605 17.14 143.205 17.14C139.845 17.14 139.425 17.32 139.425 17.84C139.425 18.4 139.785 18.56 144.745 18.82C151.225 19.16 152.265 20.62 152.265 23.5C152.265 26.7 151.085 28.28 143.665 28.28ZM155.878 24.8V16.2C155.878 15.24 155.878 14.5 155.858 13.8H171.698V17.58C169.098 17.56 165.198 17.56 162.398 17.56H160.638V19.04H170.778V22.58C165.778 22.56 165.398 22.56 163.198 22.56H160.638V24.24H162.598C165.398 24.24 168.998 24.24 171.938 24.22V28H155.858C155.878 27.14 155.878 26.14 155.878 24.8ZM181.25 24.8V18.02H179.89C179.09 18.02 175.85 18.02 174.65 18.04V13.8H192.61V18.04C191.41 18.02 189.97 18.02 189.17 18.02H186.01V24.8C186.01 26.12 186.01 27.1 186.03 28H181.23C181.25 27.12 181.25 26.14 181.25 24.8ZM204.235 28.28C196.355 28.28 195.135 27.32 195.135 23.42L199.915 23.34V23.72C199.915 24.44 200.195 24.62 204.135 24.62C207.875 24.62 208.075 24.44 208.075 23.8V23.7C208.075 23.12 207.695 22.84 202.715 22.6C196.315 22.28 195.215 21.22 195.215 18.06C195.215 15.1 196.515 13.52 203.735 13.52C211.715 13.52 212.375 15.06 212.375 18.28L207.595 18.36V18.02C207.595 17.4 207.175 17.14 203.775 17.14C200.415 17.14 199.995 17.32 199.995 17.84C199.995 18.4 200.355 18.56 205.315 18.82C211.795 19.16 212.835 20.62 212.835 23.5C212.835 26.7 211.655 28.28 204.235 28.28ZM216.449 24.8V16.2C216.449 15.24 216.449 14.5 216.429 13.8H232.269V17.58C229.669 17.56 225.769 17.56 222.969 17.56H221.209V19.04H231.349V22.58C226.349 22.56 225.969 22.56 223.769 22.56H221.209V24.24H223.169C225.969 24.24 229.569 24.24 232.509 24.22V28H216.429C216.449 27.14 216.449 26.14 216.449 24.8Z" fill="white"/>
<path d="M27.2876 25.959C25.5071 32.604 18.6768 36.5474 12.0318 34.7669C5.38684 32.9864 1.4434 26.1561 3.22392 19.5111C5.00444 12.8661 18.0662 2.57613 24.7112 4.35665C31.3562 6.13718 29.0681 19.3139 27.2876 25.959Z" fill="white"/>
<path d="M42.874 25.959C44.6545 32.604 51.4848 36.5474 58.1298 34.7669C64.7748 32.9864 68.7182 26.1561 66.9377 19.5111C65.1572 12.8661 52.0955 2.57613 45.4505 4.35665C38.8055 6.13718 41.0935 19.3139 42.874 25.959Z" fill="white"/>
</svg>
